<mxfile host="65bd71144e" pages="2">
    <diagram name="Register" id="0jzIv5TMcnYJrUbD7ODm">
        <mxGraphModel dx="1970" dy="591" grid="1" gridSize="10" guides="1" tooltips="1" connect="1" arrows="1" fold="1" page="1" pageScale="1" pageWidth="850" pageHeight="1100" math="0" shadow="0">
            <root>
                <mxCell id="0"/>
                <mxCell id="1" parent="0"/>
                <mxCell id="utBTq8Q3N1iCA3RBBY1x-41" style="edgeStyle=orthogonalEdgeStyle;rounded=0;orthogonalLoop=1;jettySize=auto;html=1;entryX=0.5;entryY=0;entryDx=0;entryDy=0;" parent="1" source="utBTq8Q3N1iCA3RBBY1x-1" target="utBTq8Q3N1iCA3RBBY1x-16" edge="1">
                    <mxGeometry relative="1" as="geometry"/>
                </mxCell>
                <mxCell id="utBTq8Q3N1iCA3RBBY1x-1" value="start" style="ellipse;whiteSpace=wrap;html=1;" parent="1" vertex="1">
                    <mxGeometry x="40" y="180" width="80" height="50" as="geometry"/>
                </mxCell>
                <mxCell id="utBTq8Q3N1iCA3RBBY1x-57" value="false" style="edgeStyle=orthogonalEdgeStyle;rounded=0;orthogonalLoop=1;jettySize=auto;html=1;entryX=0.5;entryY=1;entryDx=0;entryDy=0;" parent="1" source="utBTq8Q3N1iCA3RBBY1x-11" target="utBTq8Q3N1iCA3RBBY1x-50" edge="1">
                    <mxGeometry relative="1" as="geometry">
                        <Array as="points">
                            <mxPoint x="250" y="500"/>
                            <mxPoint x="250" y="500"/>
                        </Array>
                        <mxPoint as="offset"/>
                    </mxGeometry>
                </mxCell>
                <mxCell id="utBTq8Q3N1iCA3RBBY1x-58" value="true" style="edgeStyle=orthogonalEdgeStyle;rounded=0;orthogonalLoop=1;jettySize=auto;html=1;" parent="1" source="utBTq8Q3N1iCA3RBBY1x-11" target="utBTq8Q3N1iCA3RBBY1x-21" edge="1">
                    <mxGeometry relative="1" as="geometry"/>
                </mxCell>
                <mxCell id="utBTq8Q3N1iCA3RBBY1x-11" value="username.&lt;br&gt;length &amp;gt; 3 ?" style="rhombus;whiteSpace=wrap;html=1;" parent="1" vertex="1">
                    <mxGeometry x="190" y="650" width="120" height="100" as="geometry"/>
                </mxCell>
                <mxCell id="utBTq8Q3N1iCA3RBBY1x-68" value="true" style="edgeStyle=orthogonalEdgeStyle;rounded=0;orthogonalLoop=1;jettySize=auto;html=1;entryX=0.5;entryY=0;entryDx=0;entryDy=0;" parent="1" source="utBTq8Q3N1iCA3RBBY1x-13" target="utBTq8Q3N1iCA3RBBY1x-62" edge="1">
                    <mxGeometry x="-0.2727" relative="1" as="geometry">
                        <mxPoint as="offset"/>
                    </mxGeometry>
                </mxCell>
                <mxCell id="utBTq8Q3N1iCA3RBBY1x-71" style="edgeStyle=orthogonalEdgeStyle;rounded=0;orthogonalLoop=1;jettySize=auto;html=1;entryX=0.5;entryY=1;entryDx=0;entryDy=0;" parent="1" source="utBTq8Q3N1iCA3RBBY1x-13" target="utBTq8Q3N1iCA3RBBY1x-61" edge="1">
                    <mxGeometry relative="1" as="geometry"/>
                </mxCell>
                <mxCell id="utBTq8Q3N1iCA3RBBY1x-13" value="confirm password=&lt;br&gt;password?" style="rhombus;whiteSpace=wrap;html=1;" parent="1" vertex="1">
                    <mxGeometry x="520" y="510" width="120" height="100" as="geometry"/>
                </mxCell>
                <mxCell id="utBTq8Q3N1iCA3RBBY1x-67" value="false" style="edgeStyle=orthogonalEdgeStyle;rounded=0;orthogonalLoop=1;jettySize=auto;html=1;" parent="1" source="utBTq8Q3N1iCA3RBBY1x-14" target="utBTq8Q3N1iCA3RBBY1x-13" edge="1">
                    <mxGeometry relative="1" as="geometry"/>
                </mxCell>
                <mxCell id="utBTq8Q3N1iCA3RBBY1x-70" value="true" style="edgeStyle=orthogonalEdgeStyle;rounded=0;orthogonalLoop=1;jettySize=auto;html=1;entryX=0;entryY=0.5;entryDx=0;entryDy=0;" parent="1" source="utBTq8Q3N1iCA3RBBY1x-14" target="utBTq8Q3N1iCA3RBBY1x-62" edge="1">
                    <mxGeometry relative="1" as="geometry">
                        <Array as="points">
                            <mxPoint x="680" y="700"/>
                            <mxPoint x="680" y="700"/>
                        </Array>
                    </mxGeometry>
                </mxCell>
                <mxCell id="utBTq8Q3N1iCA3RBBY1x-14" value="password &lt;br&gt;strong?" style="rhombus;whiteSpace=wrap;html=1;" parent="1" vertex="1">
                    <mxGeometry x="520" y="650" width="120" height="100" as="geometry"/>
                </mxCell>
                <mxCell id="utBTq8Q3N1iCA3RBBY1x-42" style="edgeStyle=orthogonalEdgeStyle;rounded=0;orthogonalLoop=1;jettySize=auto;html=1;entryX=0.5;entryY=0;entryDx=0;entryDy=0;" parent="1" source="utBTq8Q3N1iCA3RBBY1x-16" target="utBTq8Q3N1iCA3RBBY1x-17" edge="1">
                    <mxGeometry relative="1" as="geometry"/>
                </mxCell>
                <mxCell id="utBTq8Q3N1iCA3RBBY1x-16" value="input username" style="shape=parallelogram;perimeter=parallelogramPerimeter;whiteSpace=wrap;html=1;fixedSize=1;" parent="1" vertex="1">
                    <mxGeometry x="20" y="270" width="120" height="60" as="geometry"/>
                </mxCell>
                <mxCell id="utBTq8Q3N1iCA3RBBY1x-43" style="edgeStyle=orthogonalEdgeStyle;rounded=0;orthogonalLoop=1;jettySize=auto;html=1;entryX=0.5;entryY=0;entryDx=0;entryDy=0;" parent="1" source="utBTq8Q3N1iCA3RBBY1x-17" target="utBTq8Q3N1iCA3RBBY1x-18" edge="1">
                    <mxGeometry relative="1" as="geometry"/>
                </mxCell>
                <mxCell id="utBTq8Q3N1iCA3RBBY1x-17" value="input email" style="shape=parallelogram;perimeter=parallelogramPerimeter;whiteSpace=wrap;html=1;fixedSize=1;" parent="1" vertex="1">
                    <mxGeometry x="20" y="360" width="120" height="60" as="geometry"/>
                </mxCell>
                <mxCell id="utBTq8Q3N1iCA3RBBY1x-44" style="edgeStyle=orthogonalEdgeStyle;rounded=0;orthogonalLoop=1;jettySize=auto;html=1;entryX=0.5;entryY=0;entryDx=0;entryDy=0;" parent="1" source="utBTq8Q3N1iCA3RBBY1x-18" target="utBTq8Q3N1iCA3RBBY1x-19" edge="1">
                    <mxGeometry relative="1" as="geometry"/>
                </mxCell>
                <mxCell id="utBTq8Q3N1iCA3RBBY1x-18" value="password" style="shape=parallelogram;perimeter=parallelogramPerimeter;whiteSpace=wrap;html=1;fixedSize=1;" parent="1" vertex="1">
                    <mxGeometry x="20" y="450" width="120" height="60" as="geometry"/>
                </mxCell>
                <mxCell id="utBTq8Q3N1iCA3RBBY1x-47" style="edgeStyle=orthogonalEdgeStyle;rounded=0;orthogonalLoop=1;jettySize=auto;html=1;entryX=0.5;entryY=0;entryDx=0;entryDy=0;" parent="1" source="utBTq8Q3N1iCA3RBBY1x-19" target="utBTq8Q3N1iCA3RBBY1x-46" edge="1">
                    <mxGeometry relative="1" as="geometry"/>
                </mxCell>
                <mxCell id="utBTq8Q3N1iCA3RBBY1x-19" value="confirm password" style="shape=parallelogram;perimeter=parallelogramPerimeter;whiteSpace=wrap;html=1;fixedSize=1;" parent="1" vertex="1">
                    <mxGeometry x="20" y="540" width="120" height="60" as="geometry"/>
                </mxCell>
                <mxCell id="utBTq8Q3N1iCA3RBBY1x-59" value="false" style="edgeStyle=orthogonalEdgeStyle;rounded=0;orthogonalLoop=1;jettySize=auto;html=1;entryX=0.5;entryY=1;entryDx=0;entryDy=0;" parent="1" source="utBTq8Q3N1iCA3RBBY1x-21" target="utBTq8Q3N1iCA3RBBY1x-51" edge="1">
                    <mxGeometry relative="1" as="geometry"/>
                </mxCell>
                <mxCell id="utBTq8Q3N1iCA3RBBY1x-69" value="true" style="edgeStyle=orthogonalEdgeStyle;rounded=0;orthogonalLoop=1;jettySize=auto;html=1;entryX=0;entryY=0.5;entryDx=0;entryDy=0;" parent="1" source="utBTq8Q3N1iCA3RBBY1x-21" target="utBTq8Q3N1iCA3RBBY1x-14" edge="1">
                    <mxGeometry relative="1" as="geometry"/>
                </mxCell>
                <mxCell id="utBTq8Q3N1iCA3RBBY1x-21" value="user name &amp;amp;&lt;br&gt;email has registed?" style="rhombus;whiteSpace=wrap;html=1;" parent="1" vertex="1">
                    <mxGeometry x="365" y="650" width="120" height="100" as="geometry"/>
                </mxCell>
                <mxCell id="utBTq8Q3N1iCA3RBBY1x-56" value="true" style="edgeStyle=orthogonalEdgeStyle;rounded=0;orthogonalLoop=1;jettySize=auto;html=1;entryX=0;entryY=0.5;entryDx=0;entryDy=0;" parent="1" source="utBTq8Q3N1iCA3RBBY1x-46" target="utBTq8Q3N1iCA3RBBY1x-11" edge="1">
                    <mxGeometry relative="1" as="geometry"/>
                </mxCell>
                <mxCell id="utBTq8Q3N1iCA3RBBY1x-63" value="false" style="edgeStyle=orthogonalEdgeStyle;rounded=0;orthogonalLoop=1;jettySize=auto;html=1;entryX=0;entryY=0.5;entryDx=0;entryDy=0;" parent="1" source="utBTq8Q3N1iCA3RBBY1x-46" target="utBTq8Q3N1iCA3RBBY1x-16" edge="1">
                    <mxGeometry x="0.0233" relative="1" as="geometry">
                        <Array as="points">
                            <mxPoint x="10" y="700"/>
                            <mxPoint x="10" y="300"/>
                        </Array>
                        <mxPoint as="offset"/>
                    </mxGeometry>
                </mxCell>
                <mxCell id="utBTq8Q3N1iCA3RBBY1x-46" value="input == &quot;&quot;?" style="rhombus;whiteSpace=wrap;html=1;" parent="1" vertex="1">
                    <mxGeometry x="20" y="650" width="120" height="100" as="geometry"/>
                </mxCell>
                <mxCell id="utBTq8Q3N1iCA3RBBY1x-55" style="edgeStyle=orthogonalEdgeStyle;rounded=0;orthogonalLoop=1;jettySize=auto;html=1;entryX=1;entryY=0.5;entryDx=0;entryDy=0;" parent="1" source="utBTq8Q3N1iCA3RBBY1x-50" target="utBTq8Q3N1iCA3RBBY1x-16" edge="1">
                    <mxGeometry relative="1" as="geometry"/>
                </mxCell>
                <mxCell id="utBTq8Q3N1iCA3RBBY1x-50" value="error?username&amp;nbsp;&lt;br&gt;must be&lt;br&gt;&amp;nbsp;more than 3" style="shape=parallelogram;perimeter=parallelogramPerimeter;whiteSpace=wrap;html=1;fixedSize=1;" parent="1" vertex="1">
                    <mxGeometry x="190" y="270" width="120" height="60" as="geometry"/>
                </mxCell>
                <mxCell id="utBTq8Q3N1iCA3RBBY1x-54" style="edgeStyle=orthogonalEdgeStyle;rounded=0;orthogonalLoop=1;jettySize=auto;html=1;entryX=1;entryY=0.5;entryDx=0;entryDy=0;" parent="1" source="utBTq8Q3N1iCA3RBBY1x-51" target="utBTq8Q3N1iCA3RBBY1x-50" edge="1">
                    <mxGeometry relative="1" as="geometry"/>
                </mxCell>
                <mxCell id="utBTq8Q3N1iCA3RBBY1x-51" value="username &amp;amp; email&amp;nbsp;&lt;br&gt;has registed,&lt;br&gt;input new username&amp;nbsp;&lt;br&gt;and new email&amp;nbsp;" style="shape=parallelogram;perimeter=parallelogramPerimeter;whiteSpace=wrap;html=1;fixedSize=1;" parent="1" vertex="1">
                    <mxGeometry x="350" y="270" width="150" height="60" as="geometry"/>
                </mxCell>
                <mxCell id="utBTq8Q3N1iCA3RBBY1x-73" style="edgeStyle=orthogonalEdgeStyle;rounded=0;orthogonalLoop=1;jettySize=auto;html=1;entryX=1;entryY=0.5;entryDx=0;entryDy=0;" parent="1" source="utBTq8Q3N1iCA3RBBY1x-60" target="utBTq8Q3N1iCA3RBBY1x-51" edge="1">
                    <mxGeometry relative="1" as="geometry"/>
                </mxCell>
                <mxCell id="utBTq8Q3N1iCA3RBBY1x-60" value="password&lt;br&gt;&amp;nbsp;must be strong" style="shape=parallelogram;perimeter=parallelogramPerimeter;whiteSpace=wrap;html=1;fixedSize=1;" parent="1" vertex="1">
                    <mxGeometry x="510" y="270" width="140" height="60" as="geometry"/>
                </mxCell>
                <mxCell id="utBTq8Q3N1iCA3RBBY1x-72" style="edgeStyle=orthogonalEdgeStyle;rounded=0;orthogonalLoop=1;jettySize=auto;html=1;" parent="1" source="utBTq8Q3N1iCA3RBBY1x-61" edge="1">
                    <mxGeometry relative="1" as="geometry">
                        <mxPoint x="580" y="330" as="targetPoint"/>
                    </mxGeometry>
                </mxCell>
                <mxCell id="utBTq8Q3N1iCA3RBBY1x-61" value="input confrim&lt;br&gt;password" style="shape=parallelogram;perimeter=parallelogramPerimeter;whiteSpace=wrap;html=1;fixedSize=1;" parent="1" vertex="1">
                    <mxGeometry x="520" y="400" width="120" height="60" as="geometry"/>
                </mxCell>
                <mxCell id="utBTq8Q3N1iCA3RBBY1x-75" style="edgeStyle=orthogonalEdgeStyle;rounded=0;orthogonalLoop=1;jettySize=auto;html=1;entryX=0.5;entryY=0;entryDx=0;entryDy=0;" parent="1" source="utBTq8Q3N1iCA3RBBY1x-62" target="utBTq8Q3N1iCA3RBBY1x-74" edge="1">
                    <mxGeometry relative="1" as="geometry"/>
                </mxCell>
                <mxCell id="utBTq8Q3N1iCA3RBBY1x-62" value="register succes" style="shape=parallelogram;perimeter=parallelogramPerimeter;whiteSpace=wrap;html=1;fixedSize=1;" parent="1" vertex="1">
                    <mxGeometry x="710" y="670" width="120" height="60" as="geometry"/>
                </mxCell>
                <mxCell id="utBTq8Q3N1iCA3RBBY1x-74" value="End" style="ellipse;whiteSpace=wrap;html=1;" parent="1" vertex="1">
                    <mxGeometry x="730" y="770" width="80" height="50" as="geometry"/>
                </mxCell>
            </root>
        </mxGraphModel>
    </diagram>
    <diagram id="M7zXNXiV9saO3NkbytQL" name="Login">
        <mxGraphModel dx="1120" dy="591" grid="1" gridSize="10" guides="1" tooltips="1" connect="1" arrows="1" fold="1" page="1" pageScale="1" pageWidth="850" pageHeight="1100" math="0" shadow="0">
            <root>
                <mxCell id="0"/>
                <mxCell id="1" parent="0"/>
                <mxCell id="1ALLMTtEbKcWGEcqS9Ah-7" style="edgeStyle=orthogonalEdgeStyle;rounded=0;orthogonalLoop=1;jettySize=auto;html=1;entryX=0.5;entryY=0;entryDx=0;entryDy=0;" parent="1" source="1ALLMTtEbKcWGEcqS9Ah-1" target="1ALLMTtEbKcWGEcqS9Ah-3" edge="1">
                    <mxGeometry relative="1" as="geometry"/>
                </mxCell>
                <mxCell id="1ALLMTtEbKcWGEcqS9Ah-1" value="Start" style="ellipse;whiteSpace=wrap;html=1;" parent="1" vertex="1">
                    <mxGeometry x="160" y="50" width="70" height="50" as="geometry"/>
                </mxCell>
                <mxCell id="1ALLMTtEbKcWGEcqS9Ah-2" value="End" style="ellipse;whiteSpace=wrap;html=1;" parent="1" vertex="1">
                    <mxGeometry x="680" y="457.5" width="70" height="50" as="geometry"/>
                </mxCell>
                <mxCell id="1ALLMTtEbKcWGEcqS9Ah-8" style="edgeStyle=orthogonalEdgeStyle;rounded=0;orthogonalLoop=1;jettySize=auto;html=1;" parent="1" source="1ALLMTtEbKcWGEcqS9Ah-3" target="1ALLMTtEbKcWGEcqS9Ah-4" edge="1">
                    <mxGeometry relative="1" as="geometry"/>
                </mxCell>
                <mxCell id="1ALLMTtEbKcWGEcqS9Ah-3" value="username" style="shape=parallelogram;perimeter=parallelogramPerimeter;whiteSpace=wrap;html=1;fixedSize=1;" parent="1" vertex="1">
                    <mxGeometry x="135" y="140" width="120" height="60" as="geometry"/>
                </mxCell>
                <mxCell id="1ALLMTtEbKcWGEcqS9Ah-9" style="edgeStyle=orthogonalEdgeStyle;rounded=0;orthogonalLoop=1;jettySize=auto;html=1;entryX=0.5;entryY=0;entryDx=0;entryDy=0;" parent="1" source="1ALLMTtEbKcWGEcqS9Ah-4" target="1ALLMTtEbKcWGEcqS9Ah-5" edge="1">
                    <mxGeometry relative="1" as="geometry"/>
                </mxCell>
                <mxCell id="1ALLMTtEbKcWGEcqS9Ah-4" value="email" style="shape=parallelogram;perimeter=parallelogramPerimeter;whiteSpace=wrap;html=1;fixedSize=1;" parent="1" vertex="1">
                    <mxGeometry x="135" y="230" width="120" height="60" as="geometry"/>
                </mxCell>
                <mxCell id="1ALLMTtEbKcWGEcqS9Ah-12" style="edgeStyle=orthogonalEdgeStyle;rounded=0;orthogonalLoop=1;jettySize=auto;html=1;entryX=0.5;entryY=0;entryDx=0;entryDy=0;" parent="1" source="1ALLMTtEbKcWGEcqS9Ah-5" target="1ALLMTtEbKcWGEcqS9Ah-10" edge="1">
                    <mxGeometry relative="1" as="geometry"/>
                </mxCell>
                <mxCell id="1ALLMTtEbKcWGEcqS9Ah-5" value="password" style="shape=parallelogram;perimeter=parallelogramPerimeter;whiteSpace=wrap;html=1;fixedSize=1;" parent="1" vertex="1">
                    <mxGeometry x="135" y="320" width="120" height="60" as="geometry"/>
                </mxCell>
                <mxCell id="1ALLMTtEbKcWGEcqS9Ah-11" style="edgeStyle=orthogonalEdgeStyle;rounded=0;orthogonalLoop=1;jettySize=auto;html=1;entryX=0;entryY=0.25;entryDx=0;entryDy=0;exitX=0;exitY=0.5;exitDx=0;exitDy=0;" parent="1" source="1ALLMTtEbKcWGEcqS9Ah-10" target="1ALLMTtEbKcWGEcqS9Ah-3" edge="1">
                    <mxGeometry relative="1" as="geometry">
                        <Array as="points">
                            <mxPoint x="150" y="480"/>
                            <mxPoint x="110" y="480"/>
                            <mxPoint x="110" y="159"/>
                        </Array>
                    </mxGeometry>
                </mxCell>
                <mxCell id="1ALLMTtEbKcWGEcqS9Ah-26" value="false" style="edgeLabel;html=1;align=center;verticalAlign=middle;resizable=0;points=[];" parent="1ALLMTtEbKcWGEcqS9Ah-11" vertex="1" connectable="0">
                    <mxGeometry x="-0.3859" y="-1" relative="1" as="geometry">
                        <mxPoint as="offset"/>
                    </mxGeometry>
                </mxCell>
                <mxCell id="1ALLMTtEbKcWGEcqS9Ah-14" value="true" style="edgeStyle=orthogonalEdgeStyle;rounded=0;orthogonalLoop=1;jettySize=auto;html=1;entryX=0;entryY=0.5;entryDx=0;entryDy=0;" parent="1" source="1ALLMTtEbKcWGEcqS9Ah-10" target="1ALLMTtEbKcWGEcqS9Ah-13" edge="1">
                    <mxGeometry relative="1" as="geometry"/>
                </mxCell>
                <mxCell id="1ALLMTtEbKcWGEcqS9Ah-10" value="input == &quot; &quot;?" style="rhombus;whiteSpace=wrap;html=1;" parent="1" vertex="1">
                    <mxGeometry x="142.5" y="437.5" width="105" height="90" as="geometry"/>
                </mxCell>
                <mxCell id="1ALLMTtEbKcWGEcqS9Ah-18" value="true" style="edgeStyle=orthogonalEdgeStyle;rounded=0;orthogonalLoop=1;jettySize=auto;html=1;entryX=0;entryY=0.5;entryDx=0;entryDy=0;" parent="1" source="1ALLMTtEbKcWGEcqS9Ah-13" target="1ALLMTtEbKcWGEcqS9Ah-16" edge="1">
                    <mxGeometry relative="1" as="geometry"/>
                </mxCell>
                <mxCell id="1ALLMTtEbKcWGEcqS9Ah-25" value="false" style="edgeStyle=orthogonalEdgeStyle;rounded=0;orthogonalLoop=1;jettySize=auto;html=1;" parent="1" source="1ALLMTtEbKcWGEcqS9Ah-13" target="1ALLMTtEbKcWGEcqS9Ah-15" edge="1">
                    <mxGeometry relative="1" as="geometry"/>
                </mxCell>
                <mxCell id="1ALLMTtEbKcWGEcqS9Ah-13" value="username&amp;amp;&lt;br&gt;emai &amp;amp;password= truel" style="rhombus;whiteSpace=wrap;html=1;" parent="1" vertex="1">
                    <mxGeometry x="335" y="430" width="110" height="105" as="geometry"/>
                </mxCell>
                <mxCell id="1ALLMTtEbKcWGEcqS9Ah-24" style="edgeStyle=orthogonalEdgeStyle;rounded=0;orthogonalLoop=1;jettySize=auto;html=1;entryX=0.5;entryY=1;entryDx=0;entryDy=0;" parent="1" source="1ALLMTtEbKcWGEcqS9Ah-15" target="1ALLMTtEbKcWGEcqS9Ah-20" edge="1">
                    <mxGeometry relative="1" as="geometry"/>
                </mxCell>
                <mxCell id="1ALLMTtEbKcWGEcqS9Ah-15" value="password wrong!" style="shape=parallelogram;perimeter=parallelogramPerimeter;whiteSpace=wrap;html=1;fixedSize=1;" parent="1" vertex="1">
                    <mxGeometry x="330" y="330" width="120" height="60" as="geometry"/>
                </mxCell>
                <mxCell id="1ALLMTtEbKcWGEcqS9Ah-19" style="edgeStyle=orthogonalEdgeStyle;rounded=0;orthogonalLoop=1;jettySize=auto;html=1;entryX=0;entryY=0.5;entryDx=0;entryDy=0;" parent="1" source="1ALLMTtEbKcWGEcqS9Ah-16" target="1ALLMTtEbKcWGEcqS9Ah-2" edge="1">
                    <mxGeometry relative="1" as="geometry"/>
                </mxCell>
                <mxCell id="1ALLMTtEbKcWGEcqS9Ah-16" value="login sucees , in to page home" style="shape=parallelogram;perimeter=parallelogramPerimeter;whiteSpace=wrap;html=1;fixedSize=1;" parent="1" vertex="1">
                    <mxGeometry x="500" y="452.5" width="120" height="60" as="geometry"/>
                </mxCell>
                <mxCell id="1ALLMTtEbKcWGEcqS9Ah-23" style="edgeStyle=orthogonalEdgeStyle;rounded=0;orthogonalLoop=1;jettySize=auto;html=1;entryX=0.5;entryY=1;entryDx=0;entryDy=0;" parent="1" source="1ALLMTtEbKcWGEcqS9Ah-20" target="1ALLMTtEbKcWGEcqS9Ah-21" edge="1">
                    <mxGeometry relative="1" as="geometry"/>
                </mxCell>
                <mxCell id="1ALLMTtEbKcWGEcqS9Ah-20" value="email wrong" style="shape=parallelogram;perimeter=parallelogramPerimeter;whiteSpace=wrap;html=1;fixedSize=1;" parent="1" vertex="1">
                    <mxGeometry x="330" y="240" width="120" height="60" as="geometry"/>
                </mxCell>
                <mxCell id="1ALLMTtEbKcWGEcqS9Ah-22" style="edgeStyle=orthogonalEdgeStyle;rounded=0;orthogonalLoop=1;jettySize=auto;html=1;" parent="1" source="1ALLMTtEbKcWGEcqS9Ah-21" edge="1">
                    <mxGeometry relative="1" as="geometry">
                        <mxPoint x="250" y="160" as="targetPoint"/>
                    </mxGeometry>
                </mxCell>
                <mxCell id="1ALLMTtEbKcWGEcqS9Ah-21" value="username wrong" style="shape=parallelogram;perimeter=parallelogramPerimeter;whiteSpace=wrap;html=1;fixedSize=1;" parent="1" vertex="1">
                    <mxGeometry x="330" y="130" width="120" height="60" as="geometry"/>
                </mxCell>
            </root>
        </mxGraphModel>
    </diagram>
</mxfile>
